# xmcd
#
# Track frame offsets:
#	150
#	22648
#	39743
#	62241
#
# Disc length: 1057
#
# Revision: 2
# Processed by: cddbd v1.5.2PL0 Copyright (c) Steve Scherf et al.
# Submitted via: kJams Lite (development) 1.0patch48.27
#
DISCID=29041f04
DTITLE=大黒摩季 - CT001 − Josh Groban
DYEAR=1997
DGENRE=JPop
TTITLE0=Josh Groban - You Raise Me Up
TTITLE1=Josh Groban - You're Still You
TTITLE2=Josh Groban - You Raise Me Up − Vocal
TTITLE3=Josh Groban - You're Still You − Vocal
EXTD=YEAR: 1997
EXTT0=
EXTT1=
EXTT2=
EXTT3=
PLAYORDER=
